<svg id="visual" viewBox="0 0 960 540" width="960" height="540" xmlns="http://www.w3.org/2000/svg" xmlns:xlink="http://www.w3.org/1999/xlink" version="1.1"><g stroke-width="1" stroke-linejoin="bevel"><path d="M352 291L354 540L656 540Z" fill="#22678b" stroke="#22678b"></path><path d="M656 540L608 241L352 291Z" fill="#257398" stroke="#257398"></path><path d="M960 0L622 0L608 241Z" fill="#011828" stroke="#011828"></path><path d="M608 241L333 0L352 291Z" fill="#113d57" stroke="#113d57"></path><path d="M622 0L333 0L608 241Z" fill="#297ea6" stroke="#297ea6"></path><path d="M352 291L0 540L354 540Z" fill="#113d57" stroke="#113d57"></path><path d="M656 540L960 274L608 241Z" fill="#154764" stroke="#154764"></path><path d="M960 540L960 274L656 540Z" fill="#257398" stroke="#257398"></path><path d="M0 253L0 540L352 291Z" fill="#1e5c7e" stroke="#1e5c7e"></path><path d="M333 0L0 253L352 291Z" fill="#011828" stroke="#011828"></path><path d="M960 274L960 0L608 241Z" fill="#0c334b" stroke="#0c334b"></path><path d="M333 0L0 0L0 253Z" fill="#154764" stroke="#154764"></path></g></svg>